<?xml version="1.0" encoding="UTF-8"?>
<svg xmlns="http://www.w3.org/2000/svg" xmlns:xlink="http://www.w3.org/1999/xlink" width="12pt" height="12pt" viewBox="0 0 12 12" version="1.1">
<g id="surface1">
<path style=" stroke:none;fill-rule:nonzero;fill:rgb(0%,0%,0%);fill-opacity:1;" d="M 1.664062 3.886719 C 1.460938 3.886719 1.285156 3.960938 1.140625 4.105469 C 0.996094 4.246094 0.921875 4.421875 0.921875 4.621094 L 0.921875 7.722656 C 0.921875 7.929688 0.996094 8.105469 1.140625 8.25 C 1.285156 8.394531 1.460938 8.46875 1.664062 8.46875 C 1.871094 8.46875 2.046875 8.394531 2.1875 8.25 C 2.332031 8.105469 2.402344 7.929688 2.402344 7.722656 L 2.402344 4.621094 C 2.402344 4.421875 2.328125 4.246094 2.183594 4.105469 C 2.042969 3.960938 1.867188 3.886719 1.664062 3.886719 Z M 1.664062 3.886719 "/>
<path style=" stroke:none;fill-rule:nonzero;fill:rgb(0%,0%,0%);fill-opacity:1;" d="M 7.636719 1.101562 L 8.148438 0.160156 C 8.183594 0.0976562 8.171875 0.046875 8.113281 0.015625 C 8.050781 -0.015625 8.003906 0 7.96875 0.0585938 L 7.449219 1.011719 C 6.992188 0.808594 6.511719 0.707031 6 0.707031 C 5.492188 0.707031 5.007812 0.808594 4.550781 1.011719 L 4.03125 0.0585938 C 3.996094 0 3.949219 -0.015625 3.886719 0.015625 C 3.828125 0.046875 3.816406 0.0976562 3.851562 0.160156 L 4.363281 1.101562 C 3.84375 1.367188 3.429688 1.738281 3.125 2.210938 C 2.816406 2.683594 2.660156 3.203125 2.660156 3.765625 L 9.332031 3.765625 C 9.332031 3.203125 9.179688 2.683594 8.871094 2.210938 C 8.5625 1.738281 8.152344 1.367188 7.636719 1.101562 Z M 4.675781 2.476562 C 4.621094 2.53125 4.554688 2.558594 4.480469 2.558594 C 4.402344 2.558594 4.335938 2.53125 4.285156 2.476562 C 4.230469 2.421875 4.203125 2.355469 4.203125 2.277344 C 4.203125 2.203125 4.230469 2.136719 4.285156 2.082031 C 4.335938 2.027344 4.402344 1.996094 4.480469 1.996094 C 4.554688 1.996094 4.621094 2.027344 4.675781 2.082031 C 4.730469 2.136719 4.761719 2.203125 4.761719 2.277344 C 4.761719 2.355469 4.730469 2.421875 4.675781 2.476562 Z M 7.71875 2.476562 C 7.664062 2.53125 7.597656 2.558594 7.523438 2.558594 C 7.445312 2.558594 7.378906 2.53125 7.324219 2.476562 C 7.269531 2.421875 7.242188 2.355469 7.242188 2.277344 C 7.242188 2.203125 7.269531 2.136719 7.324219 2.082031 C 7.378906 2.027344 7.445312 1.996094 7.523438 1.996094 C 7.597656 1.996094 7.664062 2.027344 7.71875 2.082031 C 7.769531 2.136719 7.796875 2.203125 7.796875 2.277344 C 7.796875 2.355469 7.769531 2.421875 7.71875 2.476562 Z M 7.71875 2.476562 "/>
<path style=" stroke:none;fill-rule:nonzero;fill:rgb(0%,0%,0%);fill-opacity:1;" d="M 2.691406 8.828125 C 2.691406 9.050781 2.765625 9.238281 2.921875 9.390625 C 3.074219 9.542969 3.261719 9.621094 3.484375 9.621094 L 4.015625 9.621094 L 4.023438 11.257812 C 4.023438 11.464844 4.097656 11.640625 4.242188 11.785156 C 4.386719 11.929688 4.558594 12 4.761719 12 C 4.964844 12 5.140625 11.929688 5.285156 11.785156 C 5.429688 11.640625 5.503906 11.464844 5.503906 11.257812 L 5.503906 9.621094 L 6.496094 9.621094 L 6.496094 11.257812 C 6.496094 11.464844 6.570312 11.640625 6.714844 11.785156 C 6.859375 11.929688 7.035156 12 7.242188 12 C 7.449219 12 7.621094 11.929688 7.765625 11.785156 C 7.910156 11.640625 7.984375 11.464844 7.984375 11.257812 L 7.984375 9.621094 L 8.523438 9.621094 C 8.742188 9.621094 8.925781 9.542969 9.078125 9.390625 C 9.234375 9.238281 9.308594 9.050781 9.308594 8.828125 L 9.308594 4.023438 L 2.691406 4.023438 Z M 2.691406 8.828125 "/>
<path style=" stroke:none;fill-rule:nonzero;fill:rgb(0%,0%,0%);fill-opacity:1;" d="M 10.335938 3.886719 C 10.132812 3.886719 9.960938 3.957031 9.816406 4.101562 C 9.671875 4.242188 9.597656 4.417969 9.597656 4.621094 L 9.597656 7.722656 C 9.597656 7.929688 9.671875 8.105469 9.816406 8.25 C 9.960938 8.394531 10.132812 8.46875 10.335938 8.46875 C 10.542969 8.46875 10.71875 8.394531 10.863281 8.25 C 11.003906 8.105469 11.078125 7.929688 11.078125 7.722656 L 11.078125 4.621094 C 11.078125 4.417969 11.003906 4.242188 10.863281 4.101562 C 10.71875 3.957031 10.542969 3.886719 10.335938 3.886719 Z M 10.335938 3.886719 "/>
</g>
</svg>
